<?xml version="1.0" encoding="UTF-8"?>
<svg id="Layer_2" data-name="Layer 2" xmlns="http://www.w3.org/2000/svg" viewBox="0 0 197.02 23.04">
  <defs>
    <style>
      .cls-1 {
        fill: #fff;
      }
    </style>
  </defs>
  <g id="Copy">
    <g>
      <g>
        <path class="cls-1" d="M20.12,22.81h-5.48L5.48,8.94v13.87H0V.32h5.48l9.16,13.94V.32h5.48v22.49Z"/>
        <path class="cls-1" d="M29.58,4.71v4.55h7.34v4.23h-7.34v4.93h8.3v4.39h-13.78V.32h13.78v4.39h-8.3Z"/>
        <path class="cls-1" d="M55.21,22.81l-4.58-6.89-4.04,6.89h-6.22l7.21-11.44L40.21.32h6.38l4.52,6.79,3.97-6.79h6.22l-7.15,11.34,7.43,11.15h-6.38Z"/>
        <path class="cls-1" d="M67.34,21.56c-1.76-.98-3.16-2.36-4.2-4.12-1.04-1.76-1.55-3.74-1.55-5.94s.52-4.18,1.55-5.93c1.04-1.75,2.44-3.12,4.2-4.1,1.76-.98,3.7-1.47,5.82-1.47s4.05.49,5.82,1.47c1.76.98,3.15,2.35,4.17,4.1,1.01,1.75,1.52,3.73,1.52,5.93s-.51,4.18-1.54,5.94c-1.03,1.76-2.41,3.14-4.17,4.12-1.75.98-3.68,1.47-5.8,1.47s-4.05-.49-5.82-1.47ZM77.46,16.25c1.08-1.2,1.62-2.78,1.62-4.74s-.54-3.57-1.62-4.76c-1.08-1.19-2.52-1.78-4.31-1.78s-3.26.59-4.34,1.76c-1.08,1.17-1.62,2.77-1.62,4.77s.54,3.57,1.62,4.76c1.08,1.19,2.53,1.78,4.34,1.78s3.23-.6,4.31-1.79Z"/>
      </g>
      <g>
        <path class="cls-1" d="M112.46.29l-8.5,22.52h-3.39L92.07.29h3.13l7.08,19.42L109.36.29h3.1Z"/>
        <path class="cls-1" d="M118.63.29v22.52h-2.94V.29h2.94Z"/>
        <path class="cls-1" d="M126.79,22.25c-1.17-.53-2.1-1.26-2.76-2.2-.67-.94-1.01-2.02-1.03-3.25h3.13c.11,1.06.54,1.94,1.31,2.67.76.72,1.88,1.08,3.34,1.08s2.5-.35,3.31-1.05c.81-.7,1.21-1.6,1.21-2.7,0-.86-.24-1.56-.71-2.1-.47-.54-1.07-.95-1.78-1.23-.71-.28-1.67-.58-2.88-.9-1.49-.39-2.68-.78-3.57-1.16-.89-.39-1.66-1-2.29-1.83-.64-.83-.95-1.94-.95-3.34,0-1.23.31-2.32.94-3.26.62-.95,1.5-1.68,2.63-2.2C127.83.26,129.13,0,130.59,0c2.11,0,3.84.53,5.19,1.58,1.35,1.06,2.11,2.46,2.28,4.2h-3.23c-.11-.86-.56-1.62-1.36-2.28-.8-.66-1.85-.99-3.17-.99-1.23,0-2.23.32-3.01.95-.78.64-1.16,1.52-1.16,2.67,0,.82.23,1.49.69,2,.46.52,1.03.91,1.71,1.18.68.27,1.63.58,2.86.92,1.49.41,2.68.81,3.59,1.21.9.4,1.68,1.01,2.33,1.84.65.83.97,1.96.97,3.38,0,1.1-.29,2.13-.87,3.1-.58.97-1.44,1.76-2.58,2.36-1.14.6-2.49.9-4.04.9s-2.82-.26-3.99-.79Z"/>
        <path class="cls-1" d="M145.49.29v14.25c0,2,.49,3.49,1.47,4.46.98.97,2.34,1.45,4.09,1.45s3.07-.48,4.06-1.45c.98-.97,1.47-2.46,1.47-4.46V.29h2.94v14.22c0,1.87-.38,3.45-1.13,4.73-.75,1.28-1.77,2.24-3.05,2.86-1.28.63-2.72.94-4.31.94s-3.03-.31-4.31-.94c-1.28-.62-2.29-1.58-3.04-2.86-.74-1.28-1.11-2.86-1.11-4.73V.29h2.94Z"/>
        <path class="cls-1" d="M177.73,17.8h-9.82l-1.81,5.01h-3.1L171.14.42h3.39l8.11,22.39h-3.1l-1.81-5.01ZM176.89,15.41l-4.07-11.37-4.07,11.37h8.14Z"/>
        <path class="cls-1" d="M189.14,20.42h7.88v2.39h-10.82V.29h2.94v20.13Z"/>
      </g>
    </g>
  </g>
</svg>